<svg xmlns="http://www.w3.org/2000/svg" viewBox="0 0 720 420" width="720" height="420" role="img" aria-labelledby="colorguard-title colorguard-desc"><title id="colorguard-title">Four-cadet color guard</title><desc id="colorguard-desc">Four anonymous uniformed cadets present two centered colors between outside rifle guards.</desc><defs><linearGradient id="colorguard-bg" x2="1" y2="1"><stop stop-color="#07182b"/><stop offset="1" stop-color="#193b5a"/></linearGradient></defs><rect width="720" height="420" rx="24" fill="url(#colorguard-bg)"/><path d="M40 350H680" stroke="#6f8da8" stroke-width="3" opacity=".55"/><style>.motion{animation:colorWave 7s ease-in-out infinite;transform-box:fill-box;transform-origin:center}@keyframes colorWave{0%,55%,100%{transform:skewY(0)}25%{transform:skewY(3deg)}}@media (prefers-reduced-motion: reduce){.motion{animation:none;transform:none}}</style><g class="" transform="translate(125 260) scale(0.9)"><circle cy="-72" r="15" fill="#aebdca"/><path d="M-18-52H18L27 15 13 52H-13L-27 15Z" fill="#193b5a" stroke="#e6bb50" stroke-width="3"/><path d="M-11 52L-16 105M11 52L16 105M-20-35L-41 22M20-35L41 22" fill="none" stroke="#f7f8fa" stroke-width="10" stroke-linecap="round"/><path d="M44-58L55 72" stroke="#7d2638" stroke-width="8"/><path d="M49-62L59-70" stroke="#e6bb50" stroke-width="5"/></g><g class="" transform="translate(285 260) scale(0.9)"><circle cy="-72" r="15" fill="#aebdca"/><path d="M-18-52H18L27 15 13 52H-13L-27 15Z" fill="#193b5a" stroke="#e6bb50" stroke-width="3"/><path d="M-11 52L-16 105M11 52L16 105M-20-35L-41 22M20-35L41 22" fill="none" stroke="#f7f8fa" stroke-width="10" stroke-linecap="round"/><path d="M0-45V-150" stroke="#e6bb50" stroke-width="7"/><path class="motion" d="M4-150H105V-85H4Z" fill="#7d2638"/></g><g class="" transform="translate(435 260) scale(0.9)"><circle cy="-72" r="15" fill="#aebdca"/><path d="M-18-52H18L27 15 13 52H-13L-27 15Z" fill="#193b5a" stroke="#e6bb50" stroke-width="3"/><path d="M-11 52L-16 105M11 52L16 105M-20-35L-41 22M20-35L41 22" fill="none" stroke="#f7f8fa" stroke-width="10" stroke-linecap="round"/><path d="M0-45V-150" stroke="#e6bb50" stroke-width="7"/><path class="motion" d="M4-150H105V-85H4Z" fill="#f7f8fa"/><path d="M28-136h25v25H28z" fill="#193b5a"/></g><g class="" transform="translate(595 260) scale(0.9)"><circle cy="-72" r="15" fill="#aebdca"/><path d="M-18-52H18L27 15 13 52H-13L-27 15Z" fill="#193b5a" stroke="#e6bb50" stroke-width="3"/><path d="M-11 52L-16 105M11 52L16 105M-20-35L-41 22M20-35L41 22" fill="none" stroke="#f7f8fa" stroke-width="10" stroke-linecap="round"/><path d="M44-58L55 72" stroke="#7d2638" stroke-width="8"/><path d="M49-62L59-70" stroke="#e6bb50" stroke-width="5"/></g></svg>