<svg id="play" xmlns="http://www.w3.org/2000/svg" viewBox="0 0 720 420" width="720" height="420" role="img" aria-labelledby="colorguard-title colorguard-desc" data-motion-state="final" data-drill-artwork="one-shot"><title id="colorguard-title">Ceremonial color guard</title><desc id="colorguard-desc">Four anonymous cadets present two centered colors between outside equipment guards.</desc><defs><linearGradient id="colorguard-bg" x2="1" y2="1"><stop stop-color="#07182b"/><stop offset=".55" stop-color="#193b5a"/><stop offset="1" stop-color="#6b2436"/></linearGradient><linearGradient id="colorguard-shirt" x2=".8" y2="1"><stop stop-color="#ead7aa"/><stop offset="1" stop-color="#b9975d"/></linearGradient></defs><style>.shirt{fill:url(#colorguard-shirt);stroke:#f3e5c2;stroke-width:1.5}.legs path{fill:none;stroke:#14283b;stroke-width:17;stroke-linecap:round}.arms path{fill:none;stroke:#cfb27a;stroke-width:11;stroke-linecap:round;stroke-linejoin:round}.shoe{fill:#05090e}.rifle{fill:none;stroke:#778693;stroke-width:7;stroke-linecap:round}.stock{fill:#191f26}.pole{stroke:#d8ad3c;stroke-width:7}.motion-layer{transform-box:fill-box;transform-origin:center;animation:none}:root:target .motion-layer,.is-active .motion-layer{animation:colorguard-settle .96s cubic-bezier(.22,.75,.25,1) var(--delay,0s) 1 both}@keyframes colorguard-settle{from{translate:-10px 3px;opacity:.82}to{translate:0 0;opacity:1}}:root:target .flag-one,.is-active .flag-one{animation:colorguard-ripple-a .9s ease-out 1 both;transform-origin:left center}:root:target .flag-two,.is-active .flag-two{animation:colorguard-ripple-b 1s ease-out .05s 1 both;transform-origin:left center}@keyframes colorguard-ripple-a{from{transform:skewY(2deg)}to{transform:skewY(0)}}@keyframes colorguard-ripple-b{from{transform:skewY(-2deg)}to{transform:skewY(0)}}@media (prefers-reduced-motion: reduce){.motion-layer{animation:none!important;translate:0 0!important;opacity:1!important}.flag{animation:none!important;transform:none!important}}</style><rect width="720" height="420" rx="24" fill="url(#colorguard-bg)"/><ellipse cx="360" cy="365" rx="310" ry="22" fill="#02070d" opacity=".18"/><g class="flags"><path class="pole" d="M275 83V358M445 83V358"/><path class="flag flag-one" d="M280 86C330 75 366 99 414 87V157C365 170 330 146 280 157Z" fill="#7d2638"/><path class="flag flag-two" d="M450 86C501 75 538 99 586 87V157C537 170 501 146 450 157Z" fill="#f7f8fa"/><path d="M450 99h55v39h-55z" fill="#193b5a"/><path d="M505 105h81M505 119h81M505 134h81M450 148h136" stroke="#b43d4d" stroke-width="7"/><g fill="#fff"><circle cx="463" cy="108" r="2"/><circle cx="478" cy="108" r="2"/><circle cx="492" cy="108" r="2"/><circle cx="470" cy="122" r="2"/><circle cx="485" cy="122" r="2"/></g></g><g><g data-cadet="" class="motion-layer" style="--delay:0.00s" transform="translate(105 218) scale(1.38)"><ellipse cx="0" cy="112" rx="34" ry="7" fill="#02070d" opacity=".35"/><g class="legs"><path d="M-14 31L-17 100"/><path d="M13 31L18 100"/></g><path class="shoe" d="M-34 99q14-5 24 1l2 10h-31q-2-7 5-11M11 100q14-5 23 1l8 9H10Z"/><path class="shirt" d="M-31-34Q-17-46 0-43Q18-44 31-31L25 34Q0 44-25 34Z"/><path d="M-29 27Q0 36 27 26" fill="none" stroke="#111820" stroke-width="6"/><rect x="-6" y="26" width="13" height="9" rx="1" fill="#d6aa43"/><path d="M-9-40L0-27 10-40" fill="#f4e6c3" opacity=".8"/><rect x="8" y="-26" width="15" height="7" rx="1" fill="#7d2638"/><g class="arms"><path d="M-29 -29L-34 5L-25 35"/><path d="M27 -28L35 -5L31 18"/></g><ellipse cx="2" cy="-66" rx="16" ry="20" fill="#b89562"/><path d="M-18-72Q0-92 22-70L19-62H-18Z" fill="#f4f1e8"/><path d="M-21-69H23" stroke="#d6aa43" stroke-width="3"/><path d="M-7-80Q3-84 13-79" fill="none" stroke="#fff" stroke-width="2" opacity=".35"/><path class="rifle" d="M31-48L35 103"/><path class="stock" d="M25 72L44 68 45 105 29 108Z"/></g><g data-cadet="" class="motion-layer" style="--delay:0.06s" transform="translate(275 218) scale(1.42)"><ellipse cx="0" cy="112" rx="34" ry="7" fill="#02070d" opacity=".35"/><g class="legs"><path d="M-14 31L-17 100"/><path d="M13 31L18 100"/></g><path class="shoe" d="M-34 99q14-5 24 1l2 10h-31q-2-7 5-11M11 100q14-5 23 1l8 9H10Z"/><path class="shirt" d="M-31-34Q-17-46 0-43Q18-44 31-31L25 34Q0 44-25 34Z"/><path d="M-29 27Q0 36 27 26" fill="none" stroke="#111820" stroke-width="6"/><rect x="-6" y="26" width="13" height="9" rx="1" fill="#d6aa43"/><path d="M-9-40L0-27 10-40" fill="#f4e6c3" opacity=".8"/><rect x="8" y="-26" width="15" height="7" rx="1" fill="#7d2638"/><g class="arms"><path d="M-29 -29L-23 -2L-16 23"/><path d="M27 -28L22 -2L16 23"/></g><ellipse cx="2" cy="-66" rx="16" ry="20" fill="#b89562"/><path d="M-18-72Q0-92 22-70L19-62H-18Z" fill="#f4f1e8"/><path d="M-21-69H23" stroke="#d6aa43" stroke-width="3"/><path d="M-7-80Q3-84 13-79" fill="none" stroke="#fff" stroke-width="2" opacity=".35"/></g><g data-cadet="" class="motion-layer" style="--delay:0.12s" transform="translate(445 218) scale(1.42)"><ellipse cx="0" cy="112" rx="34" ry="7" fill="#02070d" opacity=".35"/><g class="legs"><path d="M-14 31L-17 100"/><path d="M13 31L18 100"/></g><path class="shoe" d="M-34 99q14-5 24 1l2 10h-31q-2-7 5-11M11 100q14-5 23 1l8 9H10Z"/><path class="shirt" d="M-31-34Q-17-46 0-43Q18-44 31-31L25 34Q0 44-25 34Z"/><path d="M-29 27Q0 36 27 26" fill="none" stroke="#111820" stroke-width="6"/><rect x="-6" y="26" width="13" height="9" rx="1" fill="#d6aa43"/><path d="M-9-40L0-27 10-40" fill="#f4e6c3" opacity=".8"/><rect x="8" y="-26" width="15" height="7" rx="1" fill="#7d2638"/><g class="arms"><path d="M-29 -29L-23 -2L-16 23"/><path d="M27 -28L22 -2L16 23"/></g><ellipse cx="2" cy="-66" rx="16" ry="20" fill="#b89562"/><path d="M-18-72Q0-92 22-70L19-62H-18Z" fill="#f4f1e8"/><path d="M-21-69H23" stroke="#d6aa43" stroke-width="3"/><path d="M-7-80Q3-84 13-79" fill="none" stroke="#fff" stroke-width="2" opacity=".35"/></g><g data-cadet="" class="motion-layer" style="--delay:0.18s" transform="translate(615 218) scale(1.38)"><ellipse cx="0" cy="112" rx="34" ry="7" fill="#02070d" opacity=".35"/><g class="legs"><path d="M-14 31L-17 100"/><path d="M13 31L18 100"/></g><path class="shoe" d="M-34 99q14-5 24 1l2 10h-31q-2-7 5-11M11 100q14-5 23 1l8 9H10Z"/><path class="shirt" d="M-31-34Q-17-46 0-43Q18-44 31-31L25 34Q0 44-25 34Z"/><path d="M-29 27Q0 36 27 26" fill="none" stroke="#111820" stroke-width="6"/><rect x="-6" y="26" width="13" height="9" rx="1" fill="#d6aa43"/><path d="M-9-40L0-27 10-40" fill="#f4e6c3" opacity=".8"/><rect x="8" y="-26" width="15" height="7" rx="1" fill="#7d2638"/><g class="arms"><path d="M-29 -29L-34 5L-25 35"/><path d="M27 -28L35 -5L31 18"/></g><ellipse cx="2" cy="-66" rx="16" ry="20" fill="#b89562"/><path d="M-18-72Q0-92 22-70L19-62H-18Z" fill="#f4f1e8"/><path d="M-21-69H23" stroke="#d6aa43" stroke-width="3"/><path d="M-7-80Q3-84 13-79" fill="none" stroke="#fff" stroke-width="2" opacity=".35"/><path class="rifle" d="M31-48L35 103"/><path class="stock" d="M25 72L44 68 45 105 29 108Z"/></g></g><path d="M24 24h68M24 24v44M696 396h-68M696 396v-44" fill="none" stroke="#e6bb50" stroke-width="3" opacity=".62"/></svg>